<mxfile host="app.diagrams.net" modified="2020-12-03T10:09:04.220Z" agent="5.0 (Windows NT 10.0; Win64; x64) AppleWebKit/537.36 (KHTML, like Gecko) Chrome/87.0.4280.88 Safari/537.36" etag="qXmSqFYpB83Grh7xPuHq" version="13.6.2" type="github">
  <diagram id="MZ9UWz_vCMsZEIvF25fq" name="Page-1">
    <mxGraphModel dx="2912" dy="1155" grid="1" gridSize="10" guides="1" tooltips="1" connect="1" arrows="1" fold="1" page="1" pageScale="1" pageWidth="850" pageHeight="1100" math="0" shadow="0">
      <root>
        <mxCell id="0" />
        <mxCell id="1" parent="0" />
        <mxCell id="JwbUEnQwlXoB2p9E3r5Y-82" value="PipelineModel" style="rounded=0;whiteSpace=wrap;html=1;fontSize=16;" vertex="1" parent="1">
          <mxGeometry x="900" y="80" width="240" height="640" as="geometry" />
        </mxCell>
        <mxCell id="JwbUEnQwlXoB2p9E3r5Y-11" value="" style="html=1;fillColor=#CCCCCC;strokeColor=#6881B3;gradientColor=none;gradientDirection=north;strokeWidth=2;shape=mxgraph.networks.bus;gradientColor=none;gradientDirection=north;fontColor=#ffffff;perimeter=backbonePerimeter;backboneSize=20;direction=south;" vertex="1" parent="1">
          <mxGeometry x="-10" y="130" width="20" height="780" as="geometry" />
        </mxCell>
        <mxCell id="JwbUEnQwlXoB2p9E3r5Y-14" value="" style="strokeColor=#6881B3;edgeStyle=none;rounded=0;endArrow=none;html=1;strokeWidth=2;" edge="1" parent="1">
          <mxGeometry relative="1" as="geometry">
            <mxPoint x="357" y="220" as="sourcePoint" />
            <mxPoint x="538" y="220" as="targetPoint" />
          </mxGeometry>
        </mxCell>
        <mxCell id="JwbUEnQwlXoB2p9E3r5Y-20" value="" style="strokeColor=#6881B3;edgeStyle=none;rounded=0;endArrow=none;html=1;strokeWidth=2;" edge="1" parent="1">
          <mxGeometry relative="1" as="geometry">
            <mxPoint x="-150" y="200" as="sourcePoint" />
            <mxPoint x="-10" y="200" as="targetPoint" />
          </mxGeometry>
        </mxCell>
        <mxCell id="JwbUEnQwlXoB2p9E3r5Y-21" value="" style="strokeColor=#6881B3;edgeStyle=none;rounded=0;endArrow=none;html=1;strokeWidth=2;" edge="1" parent="1">
          <mxGeometry relative="1" as="geometry">
            <mxPoint x="358" y="180" as="sourcePoint" />
            <mxPoint x="538" y="180" as="targetPoint" />
          </mxGeometry>
        </mxCell>
        <mxCell id="JwbUEnQwlXoB2p9E3r5Y-22" value="" style="strokeColor=#6881B3;edgeStyle=none;rounded=0;endArrow=none;html=1;strokeWidth=2;" edge="1" parent="1">
          <mxGeometry relative="1" as="geometry">
            <mxPoint x="-150" y="240" as="sourcePoint" />
            <mxPoint x="-10" y="240" as="targetPoint" />
          </mxGeometry>
        </mxCell>
        <mxCell id="JwbUEnQwlXoB2p9E3r5Y-23" value="Push()" style="text;html=1;strokeColor=none;fillColor=none;align=center;verticalAlign=middle;whiteSpace=wrap;rounded=0;fontStyle=1;fontSize=16;" vertex="1" parent="1">
          <mxGeometry x="388" y="150" width="60" height="30" as="geometry" />
        </mxCell>
        <mxCell id="JwbUEnQwlXoB2p9E3r5Y-24" value="StartListening()" style="text;html=1;strokeColor=none;fillColor=none;align=center;verticalAlign=middle;whiteSpace=wrap;rounded=0;fontStyle=1;fontSize=16;" vertex="1" parent="1">
          <mxGeometry x="398" y="190" width="60" height="30" as="geometry" />
        </mxCell>
        <mxCell id="JwbUEnQwlXoB2p9E3r5Y-25" value="StartListening()" style="text;html=1;strokeColor=none;fillColor=none;align=center;verticalAlign=middle;whiteSpace=wrap;rounded=0;fontStyle=1;fontSize=16;" vertex="1" parent="1">
          <mxGeometry x="-110" y="170" width="60" height="30" as="geometry" />
        </mxCell>
        <mxCell id="JwbUEnQwlXoB2p9E3r5Y-26" value="Push()" style="text;html=1;strokeColor=none;fillColor=none;align=center;verticalAlign=middle;whiteSpace=wrap;rounded=0;fontStyle=1;fontSize=16;" vertex="1" parent="1">
          <mxGeometry x="-110" y="210" width="60" height="30" as="geometry" />
        </mxCell>
        <mxCell id="JwbUEnQwlXoB2p9E3r5Y-29" value="VideoConverterMicroservice" style="rounded=0;whiteSpace=wrap;html=1;fontSize=16;" vertex="1" parent="1">
          <mxGeometry x="-380" y="190" width="230" height="60" as="geometry" />
        </mxCell>
        <mxCell id="JwbUEnQwlXoB2p9E3r5Y-30" value="" style="strokeColor=#6881B3;edgeStyle=none;rounded=0;endArrow=none;html=1;strokeWidth=2;" edge="1" parent="1">
          <mxGeometry relative="1" as="geometry">
            <mxPoint x="-150" y="400" as="sourcePoint" />
            <mxPoint x="-10" y="400" as="targetPoint" />
          </mxGeometry>
        </mxCell>
        <mxCell id="JwbUEnQwlXoB2p9E3r5Y-31" value="" style="strokeColor=#6881B3;edgeStyle=none;rounded=0;endArrow=none;html=1;strokeWidth=2;" edge="1" parent="1">
          <mxGeometry relative="1" as="geometry">
            <mxPoint x="-150" y="440" as="sourcePoint" />
            <mxPoint x="-10" y="440" as="targetPoint" />
          </mxGeometry>
        </mxCell>
        <mxCell id="JwbUEnQwlXoB2p9E3r5Y-32" value="StartListening()" style="text;html=1;strokeColor=none;fillColor=none;align=center;verticalAlign=middle;whiteSpace=wrap;rounded=0;fontStyle=1;fontSize=16;" vertex="1" parent="1">
          <mxGeometry x="-110" y="370" width="60" height="30" as="geometry" />
        </mxCell>
        <mxCell id="JwbUEnQwlXoB2p9E3r5Y-33" value="Push()" style="text;html=1;strokeColor=none;fillColor=none;align=center;verticalAlign=middle;whiteSpace=wrap;rounded=0;fontStyle=1;fontSize=16;" vertex="1" parent="1">
          <mxGeometry x="-110" y="410" width="60" height="30" as="geometry" />
        </mxCell>
        <mxCell id="JwbUEnQwlXoB2p9E3r5Y-34" value="VideoThumbnailExtractorMicroservice" style="rounded=0;whiteSpace=wrap;html=1;fontSize=16;" vertex="1" parent="1">
          <mxGeometry x="-450" y="390" width="300" height="60" as="geometry" />
        </mxCell>
        <mxCell id="JwbUEnQwlXoB2p9E3r5Y-35" value="" style="strokeColor=#6881B3;edgeStyle=none;rounded=0;endArrow=none;html=1;strokeWidth=2;" edge="1" parent="1">
          <mxGeometry relative="1" as="geometry">
            <mxPoint x="-150" y="600" as="sourcePoint" />
            <mxPoint x="-10" y="600" as="targetPoint" />
          </mxGeometry>
        </mxCell>
        <mxCell id="JwbUEnQwlXoB2p9E3r5Y-36" value="" style="strokeColor=#6881B3;edgeStyle=none;rounded=0;endArrow=none;html=1;strokeWidth=2;" edge="1" parent="1">
          <mxGeometry relative="1" as="geometry">
            <mxPoint x="-150" y="640" as="sourcePoint" />
            <mxPoint x="-10" y="640" as="targetPoint" />
          </mxGeometry>
        </mxCell>
        <mxCell id="JwbUEnQwlXoB2p9E3r5Y-37" value="StartListening()" style="text;html=1;strokeColor=none;fillColor=none;align=center;verticalAlign=middle;whiteSpace=wrap;rounded=0;fontStyle=1;fontSize=16;" vertex="1" parent="1">
          <mxGeometry x="-110" y="570" width="60" height="30" as="geometry" />
        </mxCell>
        <mxCell id="JwbUEnQwlXoB2p9E3r5Y-38" value="Push()" style="text;html=1;strokeColor=none;fillColor=none;align=center;verticalAlign=middle;whiteSpace=wrap;rounded=0;fontStyle=1;fontSize=16;" vertex="1" parent="1">
          <mxGeometry x="-110" y="610" width="60" height="30" as="geometry" />
        </mxCell>
        <mxCell id="JwbUEnQwlXoB2p9E3r5Y-39" value="VideoPreviewExtractorMicroservice" style="rounded=0;whiteSpace=wrap;html=1;fontSize=16;" vertex="1" parent="1">
          <mxGeometry x="-430" y="590" width="280" height="60" as="geometry" />
        </mxCell>
        <mxCell id="JwbUEnQwlXoB2p9E3r5Y-40" value="" style="strokeColor=#6881B3;edgeStyle=none;rounded=0;endArrow=none;html=1;strokeWidth=2;" edge="1" parent="1">
          <mxGeometry relative="1" as="geometry">
            <mxPoint x="-150" y="800" as="sourcePoint" />
            <mxPoint x="-10" y="800" as="targetPoint" />
          </mxGeometry>
        </mxCell>
        <mxCell id="JwbUEnQwlXoB2p9E3r5Y-41" value="" style="strokeColor=#6881B3;edgeStyle=none;rounded=0;endArrow=none;html=1;strokeWidth=2;" edge="1" parent="1">
          <mxGeometry relative="1" as="geometry">
            <mxPoint x="-150" y="840" as="sourcePoint" />
            <mxPoint x="-10" y="840" as="targetPoint" />
          </mxGeometry>
        </mxCell>
        <mxCell id="JwbUEnQwlXoB2p9E3r5Y-42" value="StartListening()" style="text;html=1;strokeColor=none;fillColor=none;align=center;verticalAlign=middle;whiteSpace=wrap;rounded=0;fontStyle=1;fontSize=16;" vertex="1" parent="1">
          <mxGeometry x="-110" y="770" width="60" height="30" as="geometry" />
        </mxCell>
        <mxCell id="JwbUEnQwlXoB2p9E3r5Y-43" value="Push()" style="text;html=1;strokeColor=none;fillColor=none;align=center;verticalAlign=middle;whiteSpace=wrap;rounded=0;fontStyle=1;fontSize=16;" vertex="1" parent="1">
          <mxGeometry x="-110" y="810" width="60" height="30" as="geometry" />
        </mxCell>
        <mxCell id="JwbUEnQwlXoB2p9E3r5Y-44" value="VideoStoryboardExtractorMiceroservice" style="rounded=0;whiteSpace=wrap;html=1;fontSize=16;" vertex="1" parent="1">
          <mxGeometry x="-460" y="790" width="310" height="60" as="geometry" />
        </mxCell>
        <mxCell id="JwbUEnQwlXoB2p9E3r5Y-45" value="" style="strokeColor=#6881B3;edgeStyle=none;rounded=0;endArrow=none;html=1;strokeWidth=2;" edge="1" parent="1">
          <mxGeometry relative="1" as="geometry">
            <mxPoint x="358" y="380" as="sourcePoint" />
            <mxPoint x="539" y="380" as="targetPoint" />
          </mxGeometry>
        </mxCell>
        <mxCell id="JwbUEnQwlXoB2p9E3r5Y-46" value="" style="strokeColor=#6881B3;edgeStyle=none;rounded=0;endArrow=none;html=1;strokeWidth=2;" edge="1" parent="1">
          <mxGeometry relative="1" as="geometry">
            <mxPoint x="359" y="340" as="sourcePoint" />
            <mxPoint x="539" y="340" as="targetPoint" />
          </mxGeometry>
        </mxCell>
        <mxCell id="JwbUEnQwlXoB2p9E3r5Y-47" value="Push()" style="text;html=1;strokeColor=none;fillColor=none;align=center;verticalAlign=middle;whiteSpace=wrap;rounded=0;fontStyle=1;fontSize=16;" vertex="1" parent="1">
          <mxGeometry x="389" y="310" width="60" height="30" as="geometry" />
        </mxCell>
        <mxCell id="JwbUEnQwlXoB2p9E3r5Y-48" value="StartListening()" style="text;html=1;strokeColor=none;fillColor=none;align=center;verticalAlign=middle;whiteSpace=wrap;rounded=0;fontStyle=1;fontSize=16;" vertex="1" parent="1">
          <mxGeometry x="399" y="350" width="60" height="30" as="geometry" />
        </mxCell>
        <mxCell id="JwbUEnQwlXoB2p9E3r5Y-49" value="" style="strokeColor=#6881B3;edgeStyle=none;rounded=0;endArrow=none;html=1;strokeWidth=2;" edge="1" parent="1">
          <mxGeometry relative="1" as="geometry">
            <mxPoint x="358" y="460" as="sourcePoint" />
            <mxPoint x="539" y="460" as="targetPoint" />
          </mxGeometry>
        </mxCell>
        <mxCell id="JwbUEnQwlXoB2p9E3r5Y-50" value="" style="strokeColor=#6881B3;edgeStyle=none;rounded=0;endArrow=none;html=1;strokeWidth=2;" edge="1" parent="1">
          <mxGeometry relative="1" as="geometry">
            <mxPoint x="359" y="420" as="sourcePoint" />
            <mxPoint x="539" y="420" as="targetPoint" />
          </mxGeometry>
        </mxCell>
        <mxCell id="JwbUEnQwlXoB2p9E3r5Y-51" value="Push()" style="text;html=1;strokeColor=none;fillColor=none;align=center;verticalAlign=middle;whiteSpace=wrap;rounded=0;fontStyle=1;fontSize=16;" vertex="1" parent="1">
          <mxGeometry x="389" y="390" width="60" height="30" as="geometry" />
        </mxCell>
        <mxCell id="JwbUEnQwlXoB2p9E3r5Y-52" value="StartListening()" style="text;html=1;strokeColor=none;fillColor=none;align=center;verticalAlign=middle;whiteSpace=wrap;rounded=0;fontStyle=1;fontSize=16;" vertex="1" parent="1">
          <mxGeometry x="399" y="430" width="60" height="30" as="geometry" />
        </mxCell>
        <mxCell id="JwbUEnQwlXoB2p9E3r5Y-53" value="" style="strokeColor=#6881B3;edgeStyle=none;rounded=0;endArrow=none;html=1;strokeWidth=2;" edge="1" parent="1">
          <mxGeometry relative="1" as="geometry">
            <mxPoint x="358" y="300" as="sourcePoint" />
            <mxPoint x="539" y="300" as="targetPoint" />
          </mxGeometry>
        </mxCell>
        <mxCell id="JwbUEnQwlXoB2p9E3r5Y-54" value="" style="strokeColor=#6881B3;edgeStyle=none;rounded=0;endArrow=none;html=1;strokeWidth=2;" edge="1" parent="1">
          <mxGeometry relative="1" as="geometry">
            <mxPoint x="359" y="260" as="sourcePoint" />
            <mxPoint x="539" y="260" as="targetPoint" />
          </mxGeometry>
        </mxCell>
        <mxCell id="JwbUEnQwlXoB2p9E3r5Y-55" value="Push()" style="text;html=1;strokeColor=none;fillColor=none;align=center;verticalAlign=middle;whiteSpace=wrap;rounded=0;fontStyle=1;fontSize=16;" vertex="1" parent="1">
          <mxGeometry x="389" y="230" width="60" height="30" as="geometry" />
        </mxCell>
        <mxCell id="JwbUEnQwlXoB2p9E3r5Y-56" value="StartListening()" style="text;html=1;strokeColor=none;fillColor=none;align=center;verticalAlign=middle;whiteSpace=wrap;rounded=0;fontStyle=1;fontSize=16;" vertex="1" parent="1">
          <mxGeometry x="399" y="270" width="60" height="30" as="geometry" />
        </mxCell>
        <mxCell id="JwbUEnQwlXoB2p9E3r5Y-59" value="" style="edgeStyle=orthogonalEdgeStyle;rounded=0;orthogonalLoop=1;jettySize=auto;html=1;fontSize=16;" edge="1" parent="1" source="JwbUEnQwlXoB2p9E3r5Y-58" target="JwbUEnQwlXoB2p9E3r5Y-11">
          <mxGeometry relative="1" as="geometry">
            <Array as="points">
              <mxPoint x="40" y="200" />
              <mxPoint x="40" y="200" />
            </Array>
          </mxGeometry>
        </mxCell>
        <mxCell id="JwbUEnQwlXoB2p9E3r5Y-58" value="" style="strokeWidth=2;html=1;shape=mxgraph.flowchart.annotation_2;align=left;labelPosition=right;pointerEvents=1;fontSize=16;" vertex="1" parent="1">
          <mxGeometry x="327" y="170" width="50" height="60" as="geometry" />
        </mxCell>
        <mxCell id="JwbUEnQwlXoB2p9E3r5Y-60" value="VideoConverterQueue" style="text;html=1;strokeColor=none;fillColor=none;align=center;verticalAlign=middle;whiteSpace=wrap;rounded=0;fontSize=16;" vertex="1" parent="1">
          <mxGeometry x="77.5" y="180" width="190" height="20" as="geometry" />
        </mxCell>
        <mxCell id="JwbUEnQwlXoB2p9E3r5Y-65" value="VideoConverterAnswerQueue" style="text;html=1;strokeColor=none;fillColor=none;align=center;verticalAlign=middle;whiteSpace=wrap;rounded=0;fontSize=16;" vertex="1" parent="1">
          <mxGeometry x="58" y="200" width="229" height="20" as="geometry" />
        </mxCell>
        <mxCell id="JwbUEnQwlXoB2p9E3r5Y-66" value="" style="edgeStyle=orthogonalEdgeStyle;rounded=0;orthogonalLoop=1;jettySize=auto;html=1;fontSize=16;" edge="1" parent="1" source="JwbUEnQwlXoB2p9E3r5Y-67">
          <mxGeometry relative="1" as="geometry">
            <mxPoint x="9" y="280" as="targetPoint" />
            <Array as="points">
              <mxPoint x="40" y="280" />
              <mxPoint x="40" y="280" />
            </Array>
          </mxGeometry>
        </mxCell>
        <mxCell id="JwbUEnQwlXoB2p9E3r5Y-67" value="" style="strokeWidth=2;html=1;shape=mxgraph.flowchart.annotation_2;align=left;labelPosition=right;pointerEvents=1;fontSize=16;" vertex="1" parent="1">
          <mxGeometry x="327" y="250" width="50" height="60" as="geometry" />
        </mxCell>
        <mxCell id="JwbUEnQwlXoB2p9E3r5Y-68" value="" style="edgeStyle=orthogonalEdgeStyle;rounded=0;orthogonalLoop=1;jettySize=auto;html=1;fontSize=16;" edge="1" parent="1" source="JwbUEnQwlXoB2p9E3r5Y-69">
          <mxGeometry relative="1" as="geometry">
            <mxPoint x="9" y="360" as="targetPoint" />
            <Array as="points">
              <mxPoint x="40" y="360" />
              <mxPoint x="40" y="360" />
            </Array>
          </mxGeometry>
        </mxCell>
        <mxCell id="JwbUEnQwlXoB2p9E3r5Y-69" value="" style="strokeWidth=2;html=1;shape=mxgraph.flowchart.annotation_2;align=left;labelPosition=right;pointerEvents=1;fontSize=16;" vertex="1" parent="1">
          <mxGeometry x="327" y="330" width="50" height="60" as="geometry" />
        </mxCell>
        <mxCell id="JwbUEnQwlXoB2p9E3r5Y-70" value="" style="edgeStyle=orthogonalEdgeStyle;rounded=0;orthogonalLoop=1;jettySize=auto;html=1;fontSize=16;" edge="1" parent="1" source="JwbUEnQwlXoB2p9E3r5Y-71">
          <mxGeometry relative="1" as="geometry">
            <mxPoint x="9" y="440" as="targetPoint" />
            <Array as="points">
              <mxPoint x="40" y="440" />
              <mxPoint x="40" y="440" />
            </Array>
          </mxGeometry>
        </mxCell>
        <mxCell id="JwbUEnQwlXoB2p9E3r5Y-71" value="" style="strokeWidth=2;html=1;shape=mxgraph.flowchart.annotation_2;align=left;labelPosition=right;pointerEvents=1;fontSize=16;" vertex="1" parent="1">
          <mxGeometry x="327" y="410" width="50" height="60" as="geometry" />
        </mxCell>
        <mxCell id="JwbUEnQwlXoB2p9E3r5Y-72" value="VideoThumbnailExtractorQueue" style="text;html=1;strokeColor=none;fillColor=none;align=center;verticalAlign=middle;whiteSpace=wrap;rounded=0;fontSize=16;" vertex="1" parent="1">
          <mxGeometry x="39.5" y="260" width="260" height="20" as="geometry" />
        </mxCell>
        <mxCell id="JwbUEnQwlXoB2p9E3r5Y-73" value="VideoThumbnailExtractorAnswerQueue" style="text;html=1;strokeColor=none;fillColor=none;align=center;verticalAlign=middle;whiteSpace=wrap;rounded=0;fontSize=16;" vertex="1" parent="1">
          <mxGeometry x="18" y="280" width="309" height="20" as="geometry" />
        </mxCell>
        <mxCell id="JwbUEnQwlXoB2p9E3r5Y-74" value="VideoPreviewExtractorQueue" style="text;html=1;strokeColor=none;fillColor=none;align=center;verticalAlign=middle;whiteSpace=wrap;rounded=0;fontSize=16;" vertex="1" parent="1">
          <mxGeometry x="61.5" y="340" width="225.5" height="20" as="geometry" />
        </mxCell>
        <mxCell id="JwbUEnQwlXoB2p9E3r5Y-75" value="VideoPreviewExtractorAnswerQueue" style="text;html=1;strokeColor=none;fillColor=none;align=center;verticalAlign=middle;whiteSpace=wrap;rounded=0;fontSize=16;" vertex="1" parent="1">
          <mxGeometry x="25" y="360" width="295" height="20" as="geometry" />
        </mxCell>
        <mxCell id="JwbUEnQwlXoB2p9E3r5Y-76" value="VideoStoryboardExtractorQueue" style="text;html=1;strokeColor=none;fillColor=none;align=center;verticalAlign=middle;whiteSpace=wrap;rounded=0;fontSize=16;" vertex="1" parent="1">
          <mxGeometry x="50" y="420" width="255.5" height="20" as="geometry" />
        </mxCell>
        <mxCell id="JwbUEnQwlXoB2p9E3r5Y-77" value="VideoStoryboardExtractorAnswerQueue" style="text;html=1;strokeColor=none;fillColor=none;align=center;verticalAlign=middle;whiteSpace=wrap;rounded=0;fontSize=16;" vertex="1" parent="1">
          <mxGeometry x="59.75" y="440" width="229" height="20" as="geometry" />
        </mxCell>
        <mxCell id="JwbUEnQwlXoB2p9E3r5Y-89" style="edgeStyle=orthogonalEdgeStyle;rounded=0;orthogonalLoop=1;jettySize=auto;html=1;exitX=1;exitY=0.75;exitDx=0;exitDy=0;fontSize=16;" edge="1" parent="1" source="JwbUEnQwlXoB2p9E3r5Y-78">
          <mxGeometry relative="1" as="geometry">
            <mxPoint x="840" y="215" as="targetPoint" />
          </mxGeometry>
        </mxCell>
        <mxCell id="JwbUEnQwlXoB2p9E3r5Y-78" value="&lt;span&gt;VideoConverterService&lt;br&gt;&lt;/span&gt;" style="rounded=0;whiteSpace=wrap;html=1;fontSize=16;" vertex="1" parent="1">
          <mxGeometry x="530" y="170" width="260" height="60" as="geometry" />
        </mxCell>
        <mxCell id="JwbUEnQwlXoB2p9E3r5Y-96" style="edgeStyle=orthogonalEdgeStyle;rounded=0;orthogonalLoop=1;jettySize=auto;html=1;exitX=1;exitY=0.75;exitDx=0;exitDy=0;fontSize=16;" edge="1" parent="1" source="JwbUEnQwlXoB2p9E3r5Y-79">
          <mxGeometry relative="1" as="geometry">
            <mxPoint x="840" y="295" as="targetPoint" />
          </mxGeometry>
        </mxCell>
        <mxCell id="JwbUEnQwlXoB2p9E3r5Y-79" value="VideoThumbnailExtractor&lt;span&gt;Service&lt;br&gt;&lt;/span&gt;" style="rounded=0;whiteSpace=wrap;html=1;fontSize=16;" vertex="1" parent="1">
          <mxGeometry x="530" y="250" width="260" height="60" as="geometry" />
        </mxCell>
        <mxCell id="JwbUEnQwlXoB2p9E3r5Y-95" style="edgeStyle=orthogonalEdgeStyle;rounded=0;orthogonalLoop=1;jettySize=auto;html=1;exitX=1;exitY=0.75;exitDx=0;exitDy=0;fontSize=16;" edge="1" parent="1" source="JwbUEnQwlXoB2p9E3r5Y-80">
          <mxGeometry relative="1" as="geometry">
            <mxPoint x="840" y="375" as="targetPoint" />
          </mxGeometry>
        </mxCell>
        <mxCell id="JwbUEnQwlXoB2p9E3r5Y-80" value="VideoPreviewExtractor&lt;span&gt;Service&lt;br&gt;&lt;/span&gt;" style="rounded=0;whiteSpace=wrap;html=1;fontSize=16;" vertex="1" parent="1">
          <mxGeometry x="530" y="330" width="260" height="60" as="geometry" />
        </mxCell>
        <mxCell id="JwbUEnQwlXoB2p9E3r5Y-98" style="edgeStyle=orthogonalEdgeStyle;rounded=0;orthogonalLoop=1;jettySize=auto;html=1;exitX=1;exitY=0.75;exitDx=0;exitDy=0;fontSize=16;" edge="1" parent="1" source="JwbUEnQwlXoB2p9E3r5Y-81">
          <mxGeometry relative="1" as="geometry">
            <mxPoint x="840" y="455" as="targetPoint" />
          </mxGeometry>
        </mxCell>
        <mxCell id="JwbUEnQwlXoB2p9E3r5Y-81" value="VideoStoryboardExtractorService&lt;span&gt;&lt;br&gt;&lt;/span&gt;" style="rounded=0;whiteSpace=wrap;html=1;fontSize=16;" vertex="1" parent="1">
          <mxGeometry x="530" y="410" width="260" height="60" as="geometry" />
        </mxCell>
        <mxCell id="JwbUEnQwlXoB2p9E3r5Y-83" value="PipelineStep" style="rounded=0;whiteSpace=wrap;html=1;fontSize=16;" vertex="1" parent="1">
          <mxGeometry x="940" y="280" width="120" height="60" as="geometry" />
        </mxCell>
        <mxCell id="JwbUEnQwlXoB2p9E3r5Y-84" value="PipelineStep" style="rounded=0;whiteSpace=wrap;html=1;fontSize=16;" vertex="1" parent="1">
          <mxGeometry x="940" y="460" width="120" height="60" as="geometry" />
        </mxCell>
        <mxCell id="JwbUEnQwlXoB2p9E3r5Y-86" value="PipelineStep" style="rounded=0;whiteSpace=wrap;html=1;fontSize=16;" vertex="1" parent="1">
          <mxGeometry x="940" y="115" width="120" height="60" as="geometry" />
        </mxCell>
        <mxCell id="JwbUEnQwlXoB2p9E3r5Y-87" value="PipelineStep" style="rounded=0;whiteSpace=wrap;html=1;fontSize=16;" vertex="1" parent="1">
          <mxGeometry x="940" y="620" width="120" height="60" as="geometry" />
        </mxCell>
        <mxCell id="JwbUEnQwlXoB2p9E3r5Y-90" style="edgeStyle=orthogonalEdgeStyle;rounded=0;orthogonalLoop=1;jettySize=auto;html=1;fontSize=16;entryX=1;entryY=0.25;entryDx=0;entryDy=0;" edge="1" parent="1" target="JwbUEnQwlXoB2p9E3r5Y-78">
          <mxGeometry relative="1" as="geometry">
            <mxPoint x="850" y="225" as="targetPoint" />
            <mxPoint x="840" y="185" as="sourcePoint" />
          </mxGeometry>
        </mxCell>
        <mxCell id="JwbUEnQwlXoB2p9E3r5Y-92" style="edgeStyle=orthogonalEdgeStyle;rounded=0;orthogonalLoop=1;jettySize=auto;html=1;fontSize=16;entryX=1;entryY=0.25;entryDx=0;entryDy=0;" edge="1" parent="1">
          <mxGeometry relative="1" as="geometry">
            <mxPoint x="790" y="269.5" as="targetPoint" />
            <mxPoint x="840" y="269.5" as="sourcePoint" />
          </mxGeometry>
        </mxCell>
        <mxCell id="JwbUEnQwlXoB2p9E3r5Y-94" style="edgeStyle=orthogonalEdgeStyle;rounded=0;orthogonalLoop=1;jettySize=auto;html=1;fontSize=16;entryX=1;entryY=0.25;entryDx=0;entryDy=0;" edge="1" parent="1">
          <mxGeometry relative="1" as="geometry">
            <mxPoint x="790" y="349.5" as="targetPoint" />
            <mxPoint x="840" y="349.5" as="sourcePoint" />
          </mxGeometry>
        </mxCell>
        <mxCell id="JwbUEnQwlXoB2p9E3r5Y-97" style="edgeStyle=orthogonalEdgeStyle;rounded=0;orthogonalLoop=1;jettySize=auto;html=1;fontSize=16;entryX=1;entryY=0.25;entryDx=0;entryDy=0;" edge="1" parent="1">
          <mxGeometry relative="1" as="geometry">
            <mxPoint x="790" y="420" as="targetPoint" />
            <mxPoint x="840" y="420" as="sourcePoint" />
          </mxGeometry>
        </mxCell>
        <mxCell id="JwbUEnQwlXoB2p9E3r5Y-100" value="" style="shape=flexArrow;endArrow=classic;startArrow=classic;html=1;fontSize=16;" edge="1" parent="1">
          <mxGeometry width="50" height="50" relative="1" as="geometry">
            <mxPoint x="980" y="620" as="sourcePoint" />
            <mxPoint x="980" y="520" as="targetPoint" />
          </mxGeometry>
        </mxCell>
        <mxCell id="JwbUEnQwlXoB2p9E3r5Y-102" value="" style="shape=flexArrow;endArrow=classic;startArrow=classic;html=1;fontSize=16;" edge="1" parent="1">
          <mxGeometry width="50" height="50" relative="1" as="geometry">
            <mxPoint x="980" y="280" as="sourcePoint" />
            <mxPoint x="980" y="175" as="targetPoint" />
          </mxGeometry>
        </mxCell>
        <mxCell id="JwbUEnQwlXoB2p9E3r5Y-103" value="" style="shape=flexArrow;endArrow=classic;startArrow=classic;html=1;fontSize=16;" edge="1" parent="1">
          <mxGeometry width="50" height="50" relative="1" as="geometry">
            <mxPoint x="980" y="460" as="sourcePoint" />
            <mxPoint x="980" y="340" as="targetPoint" />
          </mxGeometry>
        </mxCell>
        <mxCell id="JwbUEnQwlXoB2p9E3r5Y-104" value="Pipeline&lt;br&gt;Mapping" style="text;html=1;strokeColor=none;fillColor=none;align=center;verticalAlign=middle;whiteSpace=wrap;rounded=0;fontSize=16;rotation=-90;" vertex="1" parent="1">
          <mxGeometry x="900" y="205" width="90" height="40" as="geometry" />
        </mxCell>
        <mxCell id="JwbUEnQwlXoB2p9E3r5Y-105" value="Pipeline&lt;br&gt;Mapping" style="text;html=1;strokeColor=none;fillColor=none;align=center;verticalAlign=middle;whiteSpace=wrap;rounded=0;fontSize=16;rotation=-90;" vertex="1" parent="1">
          <mxGeometry x="900" y="380" width="90" height="40" as="geometry" />
        </mxCell>
        <mxCell id="JwbUEnQwlXoB2p9E3r5Y-106" value="Pipeline&lt;br&gt;Mapping" style="text;html=1;strokeColor=none;fillColor=none;align=center;verticalAlign=middle;whiteSpace=wrap;rounded=0;fontSize=16;rotation=-90;" vertex="1" parent="1">
          <mxGeometry x="900" y="550" width="90" height="40" as="geometry" />
        </mxCell>
      </root>
    </mxGraphModel>
  </diagram>
</mxfile>
